:SAMPLES-PER-SECOND 30
:FULLY-SPECIFIED
:DEGREES
199
root  -17.1609 34.6922 -12.3538 -175.766 24.7182 -179.85
RightUpLeg  -11.4106 -4.71 -0.87698
RightLeg  8.13898 10.36 0.805782
RightFoot  6.93562 -0.059376 1.36864
RightToes  -41.551 -0.230991 -0.323715
Spine  -2.11469 -0.0471725 0.606866
Spine1  -3.89863 0.0564278 2.05874
HEad  -65.4284 8.20087 1.75537
LeftShoulder1  -1.94126e-019 -3.10601e-018 -2.51263e-017
LeftArm  20.8008 -17.8946 -83.0412
LeftForeArm  164.796 -60.4034 -161.905
LeftHand  -1.38649 -4.5476 16.3954
RightShoulder  -4.96962e-017 0 -2.36833e-017
RightArm  12.1025 9.39289 79.8133
RightForeArm  -161.229 56.7602 166.981
RightHand  -0.978288 -2.23921 -35.2243
LeftUpLeg  -5.80945 14.0773 4.00219
LeftLeg  15.151 22.5968 4.45578
LeftFoot  1.41614 -0.00791766 0.802256
LeftToes  -20.1398 1.7763e-006 6.54387e-008
200
root  -17.1312 34.6594 -12.2859 -175.636 27.7415 -179.705
RightUpLeg  -12.0751 -2.02169 -0.622688
RightLeg  8.38031 10.4503 0.856775
RightFoot  7.07562 -0.0625241 1.41097
RightToes  -41.9771 -0.234466 -0.326407
Spine  -2.12712 -0.0871076 0.670292
Spine1  -3.90363 -0.0131094 2.19737
HEad  -65.473 10.1988 2.08184
LeftShoulder1  -1.94126e-019 -3.10601e-018 -2.51263e-017
LeftArm  17.2129 -18.1758 -82.6116
LeftForeArm  167.706 -59.2938 -162.907
LeftHand  -1.27272 -4.28694 15.4774
RightShoulder  -4.96962e-017 0 -2.36833e-017
RightArm  5.36495 10.0777 79.0269
RightForeArm  -166.595 55.844 167.041
RightHand  -0.657201 -3.07214 -32.2996
LeftUpLeg  -5.83327 15.2526 4.11372
LeftLeg  16.2512 24.1083 5.2016
LeftFoot  0.978028 -0.00420888 0.654754
LeftToes  -18.7404 1.7763e-006 6.54387e-008
201
root  -17.099 34.6344 -12.2096 -175.385 30.3593 -179.527
RightUpLeg  -12.6206 1.28624 -0.401027
RightLeg  8.35736 9.62171 0.785584
RightFoot  7.33243 -0.059268 1.36031
RightToes  -41.207 -0.231481 -0.327112
Spine  -2.24757 -0.0967951 0.704671
Spine1  -4.13553 -0.0152993 2.27389
HEad  -64.9943 12.0116 2.44457
LeftShoulder1  -1.94126e-019 -3.10601e-018 -2.51263e-017
LeftArm  13.4166 -18.1135 -81.9812
LeftForeArm  164.605 -58.5537 -163.103
LeftHand  -1.29583 -3.57533 16.9478
RightShoulder  -4.96962e-017 0 -2.36833e-017
RightArm  -1.64836 10.2783 77.1381
RightForeArm  -172.297 55.6481 166.711
RightHand  0.0335128 -5.49382 -33.2276
LeftUpLeg  -5.98657 16.3986 4.23875
LeftLeg  17.2075 25.2944 5.86607
LeftFoot  0.540638 -0.00147494 0.474291
LeftToes  -17.7698 1.7763e-006 6.54387e-008
202
root  -17.0748 34.6174 -12.1489 -175.198 32.3803 -179.443
RightUpLeg  -13.084 3.59232 -0.296881
RightLeg  8.32869 9.16976 0.744381
RightFoot  7.75409 -0.0607278 1.37596
RightToes  -41.3387 -0.226209 -0.326659
Spine  -2.29925 -0.247744 0.687378
Spine1  -4.24659 -0.306355 2.2493
HEad  -64.2647 13.7604 2.93338
LeftShoulder1  -1.94126e-019 -3.10601e-018 -2.51263e-017
LeftArm  10.9628 -18.3027 -81.5688
LeftForeArm  164.728 -58.0812 -163.406
LeftHand  -1.25007 -2.33715 18.8801
RightShoulder  -4.96962e-017 0 -2.36833e-017
RightArm  -5.9174 10.6118 75.4579
RightForeArm  -174.133 56.4398 166.174
RightHand  0.585789 -7.20055 -35.949
LeftUpLeg  -6.03433 17.2466 4.26389
LeftLeg  17.77 26.1575 6.31094
LeftFoot  0.0961769 -8.50828e-005 0.263395
LeftToes  -16.3856 1.7763e-006 6.54387e-008
203
root  -17.0623 34.6152 -12.1008 -175.09 33.7553 -179.441
RightUpLeg  -13.3785 4.91679 -0.267846
RightLeg  8.30846 9.24201 0.746932
RightFoot  7.82247 -0.0625872 1.39678
RightToes  -40.7263 -0.224311 -0.325876
Spine  -2.33449 -0.523935 0.648275
Spine1  -4.34531 -0.87612 2.19339
HEad  -63.542 14.9825 3.44064
LeftShoulder1  -1.94126e-019 -3.10601e-018 -2.51263e-017
LeftArm  12.0694 -19.177 -82.2664
LeftForeArm  164.623 -58.7321 -162.997
LeftHand  -1.26433 -2.21832 19.3766
RightShoulder  -4.96962e-017 0 -2.36833e-017
RightArm  -4.90401 11.1901 74.7412
RightForeArm  -175.058 57.2524 165.676
RightHand  0.614029 -7.24645 -36.6589
LeftUpLeg  -5.97276 17.5575 4.19046
LeftLeg  17.9044 26.8546 6.52931
LeftFoot  -0.217672 -0.000118123 0.0992363
LeftToes  -15.1912 1.7763e-006 6.54387e-008
204
root  -17.0571 34.6212 -12.0655 -174.995 34.7033 -179.535
RightUpLeg  -13.5771 5.36759 -0.326329
RightLeg  8.08622 9.72833 0.748123
RightFoot  8.1013 -0.0714217 1.50333
RightToes  -41.5581 -0.231048 -0.325591
Spine  -2.36826 -0.821896 0.590405
Spine1  -4.45059 -1.52439 2.11064
HEad  -63.2148 15.493 3.76052
LeftShoulder1  -1.94126e-019 -3.10601e-018 -2.51263e-017
LeftArm  17.9138 -20.6778 -83.846
LeftForeArm  165.316 -60.5942 -161.827
LeftHand  -1.22183 -2.86393 17.3294
RightShoulder  -4.96962e-017 0 -2.36833e-017
RightArm  1.80069 11.9932 74.8647
RightForeArm  -173.033 57.8112 165.533
RightHand  0.361855 -6.52675 -35.2921
LeftUpLeg  -5.86192 17.8834 4.04454
LeftLeg  17.6636 27.2919 6.51086
LeftFoot  -0.306438 -0.000315043 0.0436708
LeftToes  -14.8825 1.7763e-006 6.54387e-008
205
root  -17.0425 34.6312 -12.0422 -174.855 35.3448 -179.586
RightUpLeg  -13.6543 5.2427 -0.312332
RightLeg  7.69848 10.4371 0.731502
RightFoot  8.28227 -0.0823737 1.62749
RightToes  -42.0917 -0.235404 -0.32663
Spine  -2.40577 -1.11014 0.612808
Spine1  -4.57368 -2.14076 2.17428
HEad  -62.9018 15.4775 3.75504
LeftShoulder1  -1.94126e-019 -3.10601e-018 -2.51263e-017
LeftArm  26.3474 -22.2923 -85.9406
LeftForeArm  165.21 -63.7126 -159.414
LeftHand  -1.20177 -2.28329 18.2923
RightShoulder  -4.96962e-017 0 -2.36833e-017
RightArm  11.295 13.0047 75.5056
RightForeArm  -169.43 58.6729 165.342
RightHand  0.16255 -5.90319 -34.6966
LeftUpLeg  -5.70776 18.5547 4.01853
LeftLeg  17.1808 27.275 6.2757
LeftFoot  -0.0828081 -4.48326e-006 0.154951
LeftToes  -15.5176 1.7763e-006 6.54387e-008
206
root  -17.0349 34.6344 -12.0107 -174.675 35.6951 -179.592
RightUpLeg  -13.7958 4.78388 -0.243833
RightLeg  7.46579 11.217 0.740104
RightFoot  8.32928 -0.0923477 1.74748
RightToes  -42.7455 -0.240779 -0.3301
Spine  -2.2644 -1.23563 0.643231
Spine1  -4.31425 -2.39729 2.23673
HEad  -63.5033 14.0499 3.56505
LeftShoulder1  -1.94126e-019 -3.10601e-018 -2.51263e-017
LeftArm  24.9455 -21.2949 -86.0821
LeftForeArm  167.146 -63.0026 -160.205
LeftHand  -1.52218 -4.55999 17.9274
RightShoulder  -4.96962e-017 0 -2.36833e-017
RightArm  8.39999 11.8497 75.6071
RightForeArm  -168.303 57.9403 165.841
RightHand  -0.179244 -4.81568 -36.2818
LeftUpLeg  -5.81019 19.0131 4.00515
LeftLeg  17.0633 27.1573 6.19485
LeftFoot  -0.0509258 4.29218e-006 0.170536
LeftToes  -15.9229 1.7763e-006 6.54387e-008
207
root  -17.0532 34.6272 -11.9604 -174.617 35.8569 -179.624
RightUpLeg  -13.9594 4.53188 -0.24659
RightLeg  7.44857 11.6024 0.76176
RightFoot  8.19714 -0.0939066 1.7795
RightToes  -43.4643 -0.246732 -0.332963
Spine  -2.11414 -1.34228 0.670005
Spine1  -4.00109 -2.60862 2.30289
HEad  -64.9262 11.4377 2.9351
LeftShoulder1  -1.94126e-019 -3.10601e-018 -2.51263e-017
LeftArm  21.9251 -21.4482 -85.8169
LeftForeArm  167.006 -62.2037 -160.817
LeftHand  -1.25319 -4.24103 15.3165
RightShoulder  -4.96962e-017 0 -2.36833e-017
RightArm  3.34848 11.8857 75.3524
RightForeArm  -167.172 57.7119 166.051
RightHand  -0.370357 -4.11132 -33.0615
LeftUpLeg  -6.06158 19.0508 3.92885
LeftLeg  17.3223 27.1237 6.31117
LeftFoot  -0.417939 -0.000658158 -0.0189396
LeftToes  -15.1998 1.7763e-006 6.54387e-008
208
root  -17.0624 34.6222 -11.9173 -174.516 35.9754 -179.653
RightUpLeg  -14.1333 4.37929 -0.254149
RightLeg  7.4499 11.6611 0.765838
RightFoot  7.66226 -0.0814089 1.68384
RightToes  -43.9345 -0.250651 -0.336252
Spine  -2.1379 -1.27013 0.684901
Spine1  -4.03288 -2.43556 2.32633
HEad  -65.8807 7.48645 2.70844
LeftShoulder1  -1.94126e-019 -3.10601e-018 -2.51263e-017
LeftArm  18.3952 -21.0187 -84.9272
LeftForeArm  165.442 -61.9257 -160.875
LeftHand  -1.2626 -3.92176 15.9349
RightShoulder  -4.96962e-017 0 -2.36833e-017
RightArm  -1.71098 11.3955 74.2344
RightForeArm  -171.483 57.8211 165.655
RightHand  -0.128572 -4.93906 -32.9747
LeftUpLeg  -6.33973 19.3923 3.87835
LeftLeg  17.5483 26.8471 6.35892
LeftFoot  -0.81182 -0.00268058 -0.21681
LeftToes  -14.9425 1.7763e-006 6.54387e-008
209
root  -17.0646 34.6257 -11.8873 -174.358 35.905 -179.645
RightUpLeg  -14.3138 4.08159 -0.258272
RightLeg  7.55216 11.2941 0.76212
RightFoot  6.79555 -0.0592153 1.46683
RightToes  -44.9673 -0.25933 -0.341428
Spine  -2.1577 -1.17175 0.671196
Spine1  -4.06282 -2.21616 2.28584
HEad  -66.4658 2.90836 3.07699
LeftShoulder1  -1.94126e-019 -3.10601e-018 -2.51263e-017
LeftArm  14.7408 -20.4745 -83.9224
LeftForeArm  164.606 -61.698 -160.966
LeftHand  -1.24647 -2.93108 17.5322
RightShoulder  -4.96962e-017 0 -2.36833e-017
RightArm  -6.1413 10.7429 73.3833
RightForeArm  -174.938 58.0486 165.253
RightHand  0.430367 -6.7559 -35.047
LeftUpLeg  -6.62505 19.7347 3.86969
LeftLeg  17.7142 26.5045 6.36191
LeftFoot  -1.3016 -0.00706061 -0.460005
LeftToes  -14.6917 1.7763e-006 6.54387e-008
210
root  -17.0649 34.6368 -11.8752 -174.288 35.703 -179.64
RightUpLeg  -14.3243 3.28372 -0.239731
RightLeg  7.55937 11.168 0.755111
RightFoot  5.87595 -0.0412607 1.27319
RightToes  -45.4974 -0.26382 -0.344831
Spine  -2.1549 -1.14107 0.667565
Spine1  -4.04766 -2.14079 2.27004
HEad  -67.0638 -1.02017 3.481
LeftShoulder1  -1.94126e-019 -3.10601e-018 -2.51263e-017
LeftArm  12.7639 -20.4157 -84.0161
LeftForeArm  161.657 -62.3306 -160.191
LeftHand  -1.16988 -1.75195 19.095
RightShoulder  -4.96962e-017 0 -2.36833e-017
RightArm  -6.87196 10.832 73.5564
RightForeArm  -177.037 58.7222 164.694
RightHand  0.748818 -7.60648 -37.3992
LeftUpLeg  -6.74093 19.7261 3.85785
LeftLeg  17.7268 26.3081 6.32434
LeftFoot  -1.79669 -0.0135939 -0.705342
LeftToes  -14.4713 1.7763e-006 6.54387e-008
211
root  -17.0582 34.6478 -11.8656 -174.186 35.2738 -179.61
RightUpLeg  -14.3011 2.14058 -0.162298
RightLeg  7.55092 11.1259 0.750652
RightFoot  4.95864 -0.0272306 1.08661
RightToes  -46.1484 -0.269367 -0.347155
Spine  -2.20888 -1.15875 0.69101
Spine1  -4.15868 -2.19648 2.32646
HEad  -67.373 -3.78425 3.94754
LeftShoulder1  -1.94126e-019 -3.10601e-018 -2.51263e-017
LeftArm  15.2638 -20.9196 -85.1891
LeftForeArm  160.201 -63.8791 -158.75
LeftHand  -1.07275 -1.58891 17.9415
RightShoulder  -4.96962e-017 0 -2.36833e-017
RightArm  -2.22123 11.5363 73.9624
RightForeArm  -176.157 59.2527 164.452
RightHand  0.555832 -7.07745 -36.4974
LeftUpLeg  -6.88777 19.3698 3.84821
LeftLeg  17.6925 26.2674 6.29939
LeftFoot  -2.35562 -0.0236925 -0.990762
LeftToes  -13.7065 1.7763e-006 6.54387e-008
